ISO-10303-21;
HEADER;
/* Generated by software containing ST-Developer
 * from STEP Tools, Inc. (www.steptools.com) 
 */

FILE_DESCRIPTION(
/* description */ (''),
/* implementation_level */ '2;1');

FILE_NAME(
/* name */ 'Headset PCB mount.step',
/* time_stamp */ '2026-07-27T16:02:21-04:00',
/* author */ (''),
/* organization */ (''),
/* preprocessor_version */ 'ST-DEVELOPER v20.1',
/* originating_system */ 'Autodesk Translation Framework v15.8.0.0',
/* authorisation */ '');

FILE_SCHEMA (('AUTOMOTIVE_DESIGN { 1 0 10303 214 3 1 1 }'));
ENDSEC;

DATA;
#10=MECHANICAL_DESIGN_GEOMETRIC_PRESENTATION_REPRESENTATION('',(#13),#968);
#11=SHAPE_REPRESENTATION_RELATIONSHIP('SRR','None',#975,#12);
#12=ADVANCED_BREP_SHAPE_REPRESENTATION('',(#14),#967);
#13=STYLED_ITEM('',(#984),#14);
#14=MANIFOLD_SOLID_BREP('Body1',#546);
#15=FACE_BOUND('',#88,.T.);
#16=FACE_BOUND('',#89,.T.);
#17=FACE_BOUND('',#95,.T.);
#18=FACE_BOUND('',#96,.T.);
#19=B_SPLINE_CURVE_WITH_KNOTS('',3,(#831,#832,#833,#834,#835,#836,#837),
 .UNSPECIFIED.,.F.,.F.,(4,3,4),(-0.219590798410344,-0.0941103421758615,
0.),.UNSPECIFIED.);
#20=B_SPLINE_CURVE_WITH_KNOTS('',3,(#869,#870,#871,#872,#873,#874,#875),
 .UNSPECIFIED.,.F.,.F.,(4,3,4),(-0.219870059983465,-0.0942300257071992,
0.),.UNSPECIFIED.);
#21=B_SPLINE_SURFACE_WITH_KNOTS('',3,3,((#808,#809,#810,#811),(#812,#813,
#814,#815),(#816,#817,#818,#819),(#820,#821,#822,#823),(#824,#825,#826,
#827)),.UNSPECIFIED.,.F.,.F.,.F.,(4,1,4),(4,4),(0.,0.571428571428571,1.),
(0.,1.),.UNSPECIFIED.);
#22=B_SPLINE_SURFACE_WITH_KNOTS('',3,3,((#849,#850,#851,#852),(#853,#854,
#855,#856),(#857,#858,#859,#860),(#861,#862,#863,#864),(#865,#866,#867,
#868)),.UNSPECIFIED.,.F.,.F.,.F.,(4,1,4),(4,4),(0.,0.571428571428571,1.),
(0.,1.),.UNSPECIFIED.);
#23=B_SPLINE_SURFACE_WITH_KNOTS('',3,3,((#909,#910,#911,#912),(#913,#914,
#915,#916),(#917,#918,#919,#920),(#921,#922,#923,#924)),.UNSPECIFIED.,.F.,
 .F.,.F.,(4,4),(4,4),(0.,1.),(0.700000014901161,1.),.UNSPECIFIED.);
#24=B_SPLINE_SURFACE_WITH_KNOTS('',3,3,((#939,#940,#941,#942),(#943,#944,
#945,#946),(#947,#948,#949,#950),(#951,#952,#953,#954)),.UNSPECIFIED.,.F.,
 .F.,.F.,(4,4),(4,4),(0.,1.),(0.700000001341104,1.),.UNSPECIFIED.);
#25=PLANE('',#563);
#26=PLANE('',#567);
#27=PLANE('',#568);
#28=PLANE('',#569);
#29=PLANE('',#570);
#30=PLANE('',#571);
#31=PLANE('',#572);
#32=PLANE('',#573);
#33=PLANE('',#575);
#34=PLANE('',#579);
#35=PLANE('',#584);
#36=PLANE('',#587);
#37=PLANE('',#588);
#38=PLANE('',#589);
#39=PLANE('',#590);
#40=PLANE('',#591);
#41=PLANE('',#592);
#42=PLANE('',#593);
#43=PLANE('',#594);
#44=PLANE('',#595);
#45=PLANE('',#596);
#46=FACE_OUTER_BOUND('',#76,.T.);
#47=FACE_OUTER_BOUND('',#77,.T.);
#48=FACE_OUTER_BOUND('',#78,.T.);
#49=FACE_OUTER_BOUND('',#79,.T.);
#50=FACE_OUTER_BOUND('',#80,.T.);
#51=FACE_OUTER_BOUND('',#81,.T.);
#52=FACE_OUTER_BOUND('',#82,.T.);
#53=FACE_OUTER_BOUND('',#83,.T.);
#54=FACE_OUTER_BOUND('',#84,.T.);
#55=FACE_OUTER_BOUND('',#85,.T.);
#56=FACE_OUTER_BOUND('',#86,.T.);
#57=FACE_OUTER_BOUND('',#87,.T.);
#58=FACE_OUTER_BOUND('',#90,.T.);
#59=FACE_OUTER_BOUND('',#91,.T.);
#60=FACE_OUTER_BOUND('',#92,.T.);
#61=FACE_OUTER_BOUND('',#93,.T.);
#62=FACE_OUTER_BOUND('',#94,.T.);
#63=FACE_OUTER_BOUND('',#97,.T.);
#64=FACE_OUTER_BOUND('',#98,.T.);
#65=FACE_OUTER_BOUND('',#99,.T.);
#66=FACE_OUTER_BOUND('',#100,.T.);
#67=FACE_OUTER_BOUND('',#101,.T.);
#68=FACE_OUTER_BOUND('',#102,.T.);
#69=FACE_OUTER_BOUND('',#103,.T.);
#70=FACE_OUTER_BOUND('',#104,.T.);
#71=FACE_OUTER_BOUND('',#105,.T.);
#72=FACE_OUTER_BOUND('',#106,.T.);
#73=FACE_OUTER_BOUND('',#107,.T.);
#74=FACE_OUTER_BOUND('',#108,.T.);
#75=FACE_OUTER_BOUND('',#109,.T.);
#76=EDGE_LOOP('',(#363,#364,#365,#366));
#77=EDGE_LOOP('',(#367,#368,#369,#370,#371));
#78=EDGE_LOOP('',(#372,#373,#374,#375));
#79=EDGE_LOOP('',(#376,#377,#378,#379));
#80=EDGE_LOOP('',(#380,#381,#382,#383));
#81=EDGE_LOOP('',(#384,#385,#386,#387));
#82=EDGE_LOOP('',(#388,#389,#390,#391,#392));
#83=EDGE_LOOP('',(#393,#394,#395,#396));
#84=EDGE_LOOP('',(#397,#398,#399,#400));
#85=EDGE_LOOP('',(#401,#402,#403,#404,#405));
#86=EDGE_LOOP('',(#406,#407,#408,#409));
#87=EDGE_LOOP('',(#410,#411,#412,#413,#414));
#88=EDGE_LOOP('',(#415));
#89=EDGE_LOOP('',(#416));
#90=EDGE_LOOP('',(#417,#418,#419,#420));
#91=EDGE_LOOP('',(#421,#422,#423,#424));
#92=EDGE_LOOP('',(#425,#426,#427,#428));
#93=EDGE_LOOP('',(#429,#430,#431,#432));
#94=EDGE_LOOP('',(#433,#434,#435,#436,#437,#438,#439,#440));
#95=EDGE_LOOP('',(#441));
#96=EDGE_LOOP('',(#442));
#97=EDGE_LOOP('',(#443,#444,#445,#446,#447));
#98=EDGE_LOOP('',(#448,#449,#450,#451));
#99=EDGE_LOOP('',(#452,#453,#454,#455,#456,#457,#458,#459));
#100=EDGE_LOOP('',(#460,#461,#462,#463));
#101=EDGE_LOOP('',(#464,#465,#466,#467,#468));
#102=EDGE_LOOP('',(#469,#470,#471,#472));
#103=EDGE_LOOP('',(#473,#474,#475,#476,#477,#478));
#104=EDGE_LOOP('',(#479,#480,#481,#482,#483));
#105=EDGE_LOOP('',(#484,#485,#486,#487));
#106=EDGE_LOOP('',(#488,#489,#490,#491,#492,#493,#494,#495));
#107=EDGE_LOOP('',(#496,#497,#498,#499,#500));
#108=EDGE_LOOP('',(#501,#502,#503,#504));
#109=EDGE_LOOP('',(#505,#506,#507,#508,#509,#510));
#110=LINE('',#740,#171);
#111=LINE('',#743,#172);
#112=LINE('',#746,#173);
#113=LINE('',#748,#174);
#114=LINE('',#750,#175);
#115=LINE('',#752,#176);
#116=LINE('',#753,#177);
#117=LINE('',#759,#178);
#118=LINE('',#762,#179);
#119=LINE('',#765,#180);
#120=LINE('',#767,#181);
#121=LINE('',#768,#182);
#122=LINE('',#772,#183);
#123=LINE('',#774,#184);
#124=LINE('',#776,#185);
#125=LINE('',#777,#186);
#126=LINE('',#780,#187);
#127=LINE('',#782,#188);
#128=LINE('',#783,#189);
#129=LINE('',#787,#190);
#130=LINE('',#788,#191);
#131=LINE('',#789,#192);
#132=LINE('',#792,#193);
#133=LINE('',#794,#194);
#134=LINE('',#795,#195);
#135=LINE('',#798,#196);
#136=LINE('',#800,#197);
#137=LINE('',#801,#198);
#138=LINE('',#804,#199);
#139=LINE('',#806,#200);
#140=LINE('',#807,#201);
#141=LINE('',#838,#202);
#142=LINE('',#841,#203);
#143=LINE('',#843,#204);
#144=LINE('',#844,#205);
#145=LINE('',#880,#206);
#146=LINE('',#881,#207);
#147=LINE('',#882,#208);
#148=LINE('',#885,#209);
#149=LINE('',#889,#210);
#150=LINE('',#894,#211);
#151=LINE('',#895,#212);
#152=LINE('',#896,#213);
#153=LINE('',#898,#214);
#154=LINE('',#901,#215);
#155=LINE('',#903,#216);
#156=LINE('',#904,#217);
#157=LINE('',#907,#218);
#158=LINE('',#908,#219);
#159=LINE('',#925,#220);
#160=LINE('',#928,#221);
#161=LINE('',#929,#222);
#162=LINE('',#931,#223);
#163=LINE('',#935,#224);
#164=LINE('',#937,#225);
#165=LINE('',#938,#226);
#166=LINE('',#955,#227);
#167=LINE('',#956,#228);
#168=LINE('',#959,#229);
#169=LINE('',#960,#230);
#170=LINE('',#963,#231);
#171=VECTOR('',#603,10.);
#172=VECTOR('',#606,10.);
#173=VECTOR('',#609,10.);
#174=VECTOR('',#610,10.);
#175=VECTOR('',#611,10.);
#176=VECTOR('',#612,10.);
#177=VECTOR('',#613,10.);
#178=VECTOR('',#618,10.);
#179=VECTOR('',#621,10.);
#180=VECTOR('',#624,10.);
#181=VECTOR('',#625,10.);
#182=VECTOR('',#626,10.);
#183=VECTOR('',#629,6.8308126249299);
#184=VECTOR('',#630,10.);
#185=VECTOR('',#631,6.8308126249299);
#186=VECTOR('',#632,10.);
#187=VECTOR('',#635,5.83095200089971);
#188=VECTOR('',#636,5.83095200089971);
#189=VECTOR('',#637,10.);
#190=VECTOR('',#640,10.);
#191=VECTOR('',#641,10.);
#192=VECTOR('',#642,10.);
#193=VECTOR('',#645,6.83081263743622);
#194=VECTOR('',#646,10.);
#195=VECTOR('',#647,6.83081263743622);
#196=VECTOR('',#650,5.83095191784505);
#197=VECTOR('',#651,10.);
#198=VECTOR('',#652,5.83095191784505);
#199=VECTOR('',#655,10.);
#200=VECTOR('',#656,10.);
#201=VECTOR('',#657,10.);
#202=VECTOR('',#660,6.50110953778713);
#203=VECTOR('',#663,10.);
#204=VECTOR('',#664,10.);
#205=VECTOR('',#665,10.);
#206=VECTOR('',#674,10.);
#207=VECTOR('',#675,10.);
#208=VECTOR('',#676,10.);
#209=VECTOR('',#679,1.50000002235174);
#210=VECTOR('',#684,1.50000002235174);
#211=VECTOR('',#691,10.);
#212=VECTOR('',#692,10.);
#213=VECTOR('',#693,10.);
#214=VECTOR('',#696,10.);
#215=VECTOR('',#699,10.);
#216=VECTOR('',#700,10.);
#217=VECTOR('',#701,10.);
#218=VECTOR('',#704,10.);
#219=VECTOR('',#705,10.);
#220=VECTOR('',#706,10.);
#221=VECTOR('',#709,10.);
#222=VECTOR('',#710,10.);
#223=VECTOR('',#713,10.);
#224=VECTOR('',#718,10.);
#225=VECTOR('',#719,10.);
#226=VECTOR('',#720,10.);
#227=VECTOR('',#721,10.);
#228=VECTOR('',#722,10.);
#229=VECTOR('',#725,10.);
#230=VECTOR('',#726,10.);
#231=VECTOR('',#731,10.);
#232=CIRCLE('',#561,8.0000000745058);
#233=CIRCLE('',#562,8.0000000745058);
#234=CIRCLE('',#565,8.0000000745058);
#235=CIRCLE('',#566,8.0000000745058);
#236=CIRCLE('',#574,3.00000004470348);
#237=CIRCLE('',#576,1.50000002235174);
#238=CIRCLE('',#577,1.50000002235174);
#239=CIRCLE('',#578,3.00000004470348);
#240=CIRCLE('',#581,1.50000002235174);
#241=CIRCLE('',#583,1.50000002235174);
#242=CIRCLE('',#585,3.00000004470348);
#243=VERTEX_POINT('',#736);
#244=VERTEX_POINT('',#737);
#245=VERTEX_POINT('',#739);
#246=VERTEX_POINT('',#741);
#247=VERTEX_POINT('',#745);
#248=VERTEX_POINT('',#747);
#249=VERTEX_POINT('',#749);
#250=VERTEX_POINT('',#751);
#251=VERTEX_POINT('',#755);
#252=VERTEX_POINT('',#756);
#253=VERTEX_POINT('',#758);
#254=VERTEX_POINT('',#760);
#255=VERTEX_POINT('',#764);
#256=VERTEX_POINT('',#766);
#257=VERTEX_POINT('',#770);
#258=VERTEX_POINT('',#771);
#259=VERTEX_POINT('',#773);
#260=VERTEX_POINT('',#775);
#261=VERTEX_POINT('',#779);
#262=VERTEX_POINT('',#781);
#263=VERTEX_POINT('',#785);
#264=VERTEX_POINT('',#786);
#265=VERTEX_POINT('',#791);
#266=VERTEX_POINT('',#793);
#267=VERTEX_POINT('',#797);
#268=VERTEX_POINT('',#799);
#269=VERTEX_POINT('',#803);
#270=VERTEX_POINT('',#805);
#271=VERTEX_POINT('',#828);
#272=VERTEX_POINT('',#830);
#273=VERTEX_POINT('',#840);
#274=VERTEX_POINT('',#842);
#275=VERTEX_POINT('',#845);
#276=VERTEX_POINT('',#847);
#277=VERTEX_POINT('',#878);
#278=VERTEX_POINT('',#879);
#279=VERTEX_POINT('',#884);
#280=VERTEX_POINT('',#888);
#281=VERTEX_POINT('',#892);
#282=VERTEX_POINT('',#900);
#283=VERTEX_POINT('',#902);
#284=VERTEX_POINT('',#906);
#285=VERTEX_POINT('',#927);
#286=VERTEX_POINT('',#934);
#287=VERTEX_POINT('',#936);
#288=VERTEX_POINT('',#958);
#289=EDGE_CURVE('',#243,#244,#232,.T.);
#290=EDGE_CURVE('',#245,#244,#110,.T.);
#291=EDGE_CURVE('',#246,#245,#233,.T.);
#292=EDGE_CURVE('',#246,#243,#111,.T.);
#293=EDGE_CURVE('',#247,#244,#112,.T.);
#294=EDGE_CURVE('',#248,#247,#113,.T.);
#295=EDGE_CURVE('',#248,#249,#114,.T.);
#296=EDGE_CURVE('',#249,#250,#115,.T.);
#297=EDGE_CURVE('',#244,#250,#116,.T.);
#298=EDGE_CURVE('',#251,#252,#234,.T.);
#299=EDGE_CURVE('',#253,#252,#117,.T.);
#300=EDGE_CURVE('',#254,#253,#235,.T.);
#301=EDGE_CURVE('',#254,#251,#118,.T.);
#302=EDGE_CURVE('',#254,#255,#119,.T.);
#303=EDGE_CURVE('',#256,#255,#120,.T.);
#304=EDGE_CURVE('',#251,#256,#121,.T.);
#305=EDGE_CURVE('',#257,#258,#122,.T.);
#306=EDGE_CURVE('',#257,#259,#123,.T.);
#307=EDGE_CURVE('',#260,#259,#124,.T.);
#308=EDGE_CURVE('',#258,#260,#125,.T.);
#309=EDGE_CURVE('',#258,#261,#126,.T.);
#310=EDGE_CURVE('',#262,#260,#127,.T.);
#311=EDGE_CURVE('',#261,#262,#128,.T.);
#312=EDGE_CURVE('',#263,#264,#129,.T.);
#313=EDGE_CURVE('',#264,#262,#130,.T.);
#314=EDGE_CURVE('',#263,#259,#131,.T.);
#315=EDGE_CURVE('',#265,#257,#132,.T.);
#316=EDGE_CURVE('',#265,#266,#133,.T.);
#317=EDGE_CURVE('',#259,#266,#134,.T.);
#318=EDGE_CURVE('',#265,#267,#135,.T.);
#319=EDGE_CURVE('',#267,#268,#136,.T.);
#320=EDGE_CURVE('',#266,#268,#137,.T.);
#321=EDGE_CURVE('',#268,#269,#138,.T.);
#322=EDGE_CURVE('',#269,#270,#139,.T.);
#323=EDGE_CURVE('',#259,#270,#140,.T.);
#324=EDGE_CURVE('',#271,#257,#236,.T.);
#325=EDGE_CURVE('',#272,#258,#19,.T.);
#326=EDGE_CURVE('',#271,#272,#141,.T.);
#327=EDGE_CURVE('',#270,#273,#142,.T.);
#328=EDGE_CURVE('',#273,#274,#143,.T.);
#329=EDGE_CURVE('',#274,#263,#144,.T.);
#330=EDGE_CURVE('',#275,#275,#237,.T.);
#331=EDGE_CURVE('',#276,#276,#238,.T.);
#332=EDGE_CURVE('',#265,#248,#20,.T.);
#333=EDGE_CURVE('',#257,#249,#239,.T.);
#334=EDGE_CURVE('',#277,#278,#145,.T.);
#335=EDGE_CURVE('',#277,#274,#146,.T.);
#336=EDGE_CURVE('',#278,#273,#147,.T.);
#337=EDGE_CURVE('',#275,#279,#148,.T.);
#338=EDGE_CURVE('',#279,#279,#240,.T.);
#339=EDGE_CURVE('',#276,#280,#149,.T.);
#340=EDGE_CURVE('',#280,#280,#241,.T.);
#341=EDGE_CURVE('',#250,#281,#242,.T.);
#342=EDGE_CURVE('',#281,#253,#150,.T.);
#343=EDGE_CURVE('',#252,#277,#151,.T.);
#344=EDGE_CURVE('',#278,#245,#152,.T.);
#345=EDGE_CURVE('',#281,#271,#153,.T.);
#346=EDGE_CURVE('',#246,#282,#154,.T.);
#347=EDGE_CURVE('',#283,#282,#155,.T.);
#348=EDGE_CURVE('',#243,#283,#156,.T.);
#349=EDGE_CURVE('',#269,#284,#157,.T.);
#350=EDGE_CURVE('',#282,#284,#158,.T.);
#351=EDGE_CURVE('',#267,#247,#159,.T.);
#352=EDGE_CURVE('',#285,#283,#160,.T.);
#353=EDGE_CURVE('',#247,#285,#161,.T.);
#354=EDGE_CURVE('',#284,#285,#162,.T.);
#355=EDGE_CURVE('',#253,#286,#163,.T.);
#356=EDGE_CURVE('',#286,#287,#164,.T.);
#357=EDGE_CURVE('',#255,#287,#165,.T.);
#358=EDGE_CURVE('',#261,#286,#166,.T.);
#359=EDGE_CURVE('',#272,#286,#167,.T.);
#360=EDGE_CURVE('',#288,#256,#168,.T.);
#361=EDGE_CURVE('',#288,#264,#169,.T.);
#362=EDGE_CURVE('',#287,#288,#170,.T.);
#363=ORIENTED_EDGE('',*,*,#289,.T.);
#364=ORIENTED_EDGE('',*,*,#290,.F.);
#365=ORIENTED_EDGE('',*,*,#291,.F.);
#366=ORIENTED_EDGE('',*,*,#292,.T.);
#367=ORIENTED_EDGE('',*,*,#293,.F.);
#368=ORIENTED_EDGE('',*,*,#294,.F.);
#369=ORIENTED_EDGE('',*,*,#295,.T.);
#370=ORIENTED_EDGE('',*,*,#296,.T.);
#371=ORIENTED_EDGE('',*,*,#297,.F.);
#372=ORIENTED_EDGE('',*,*,#298,.T.);
#373=ORIENTED_EDGE('',*,*,#299,.F.);
#374=ORIENTED_EDGE('',*,*,#300,.F.);
#375=ORIENTED_EDGE('',*,*,#301,.T.);
#376=ORIENTED_EDGE('',*,*,#301,.F.);
#377=ORIENTED_EDGE('',*,*,#302,.T.);
#378=ORIENTED_EDGE('',*,*,#303,.F.);
#379=ORIENTED_EDGE('',*,*,#304,.F.);
#380=ORIENTED_EDGE('',*,*,#305,.F.);
#381=ORIENTED_EDGE('',*,*,#306,.T.);
#382=ORIENTED_EDGE('',*,*,#307,.F.);
#383=ORIENTED_EDGE('',*,*,#308,.F.);
#384=ORIENTED_EDGE('',*,*,#309,.F.);
#385=ORIENTED_EDGE('',*,*,#308,.T.);
#386=ORIENTED_EDGE('',*,*,#310,.F.);
#387=ORIENTED_EDGE('',*,*,#311,.F.);
#388=ORIENTED_EDGE('',*,*,#312,.T.);
#389=ORIENTED_EDGE('',*,*,#313,.T.);
#390=ORIENTED_EDGE('',*,*,#310,.T.);
#391=ORIENTED_EDGE('',*,*,#307,.T.);
#392=ORIENTED_EDGE('',*,*,#314,.F.);
#393=ORIENTED_EDGE('',*,*,#315,.F.);
#394=ORIENTED_EDGE('',*,*,#316,.T.);
#395=ORIENTED_EDGE('',*,*,#317,.F.);
#396=ORIENTED_EDGE('',*,*,#306,.F.);
#397=ORIENTED_EDGE('',*,*,#318,.T.);
#398=ORIENTED_EDGE('',*,*,#319,.T.);
#399=ORIENTED_EDGE('',*,*,#320,.F.);
#400=ORIENTED_EDGE('',*,*,#316,.F.);
#401=ORIENTED_EDGE('',*,*,#320,.T.);
#402=ORIENTED_EDGE('',*,*,#321,.T.);
#403=ORIENTED_EDGE('',*,*,#322,.T.);
#404=ORIENTED_EDGE('',*,*,#323,.F.);
#405=ORIENTED_EDGE('',*,*,#317,.T.);
#406=ORIENTED_EDGE('',*,*,#324,.T.);
#407=ORIENTED_EDGE('',*,*,#305,.T.);
#408=ORIENTED_EDGE('',*,*,#325,.F.);
#409=ORIENTED_EDGE('',*,*,#326,.F.);
#410=ORIENTED_EDGE('',*,*,#314,.T.);
#411=ORIENTED_EDGE('',*,*,#323,.T.);
#412=ORIENTED_EDGE('',*,*,#327,.T.);
#413=ORIENTED_EDGE('',*,*,#328,.T.);
#414=ORIENTED_EDGE('',*,*,#329,.T.);
#415=ORIENTED_EDGE('',*,*,#330,.T.);
#416=ORIENTED_EDGE('',*,*,#331,.T.);
#417=ORIENTED_EDGE('',*,*,#332,.F.);
#418=ORIENTED_EDGE('',*,*,#315,.T.);
#419=ORIENTED_EDGE('',*,*,#333,.T.);
#420=ORIENTED_EDGE('',*,*,#295,.F.);
#421=ORIENTED_EDGE('',*,*,#334,.F.);
#422=ORIENTED_EDGE('',*,*,#335,.T.);
#423=ORIENTED_EDGE('',*,*,#328,.F.);
#424=ORIENTED_EDGE('',*,*,#336,.F.);
#425=ORIENTED_EDGE('',*,*,#330,.F.);
#426=ORIENTED_EDGE('',*,*,#337,.T.);
#427=ORIENTED_EDGE('',*,*,#338,.F.);
#428=ORIENTED_EDGE('',*,*,#337,.F.);
#429=ORIENTED_EDGE('',*,*,#331,.F.);
#430=ORIENTED_EDGE('',*,*,#339,.T.);
#431=ORIENTED_EDGE('',*,*,#340,.F.);
#432=ORIENTED_EDGE('',*,*,#339,.F.);
#433=ORIENTED_EDGE('',*,*,#341,.T.);
#434=ORIENTED_EDGE('',*,*,#342,.T.);
#435=ORIENTED_EDGE('',*,*,#299,.T.);
#436=ORIENTED_EDGE('',*,*,#343,.T.);
#437=ORIENTED_EDGE('',*,*,#334,.T.);
#438=ORIENTED_EDGE('',*,*,#344,.T.);
#439=ORIENTED_EDGE('',*,*,#290,.T.);
#440=ORIENTED_EDGE('',*,*,#297,.T.);
#441=ORIENTED_EDGE('',*,*,#338,.T.);
#442=ORIENTED_EDGE('',*,*,#340,.T.);
#443=ORIENTED_EDGE('',*,*,#341,.F.);
#444=ORIENTED_EDGE('',*,*,#296,.F.);
#445=ORIENTED_EDGE('',*,*,#333,.F.);
#446=ORIENTED_EDGE('',*,*,#324,.F.);
#447=ORIENTED_EDGE('',*,*,#345,.F.);
#448=ORIENTED_EDGE('',*,*,#292,.F.);
#449=ORIENTED_EDGE('',*,*,#346,.T.);
#450=ORIENTED_EDGE('',*,*,#347,.F.);
#451=ORIENTED_EDGE('',*,*,#348,.F.);
#452=ORIENTED_EDGE('',*,*,#349,.T.);
#453=ORIENTED_EDGE('',*,*,#350,.F.);
#454=ORIENTED_EDGE('',*,*,#346,.F.);
#455=ORIENTED_EDGE('',*,*,#291,.T.);
#456=ORIENTED_EDGE('',*,*,#344,.F.);
#457=ORIENTED_EDGE('',*,*,#336,.T.);
#458=ORIENTED_EDGE('',*,*,#327,.F.);
#459=ORIENTED_EDGE('',*,*,#322,.F.);
#460=ORIENTED_EDGE('',*,*,#332,.T.);
#461=ORIENTED_EDGE('',*,*,#294,.T.);
#462=ORIENTED_EDGE('',*,*,#351,.F.);
#463=ORIENTED_EDGE('',*,*,#318,.F.);
#464=ORIENTED_EDGE('',*,*,#348,.T.);
#465=ORIENTED_EDGE('',*,*,#352,.F.);
#466=ORIENTED_EDGE('',*,*,#353,.F.);
#467=ORIENTED_EDGE('',*,*,#293,.T.);
#468=ORIENTED_EDGE('',*,*,#289,.F.);
#469=ORIENTED_EDGE('',*,*,#354,.T.);
#470=ORIENTED_EDGE('',*,*,#352,.T.);
#471=ORIENTED_EDGE('',*,*,#347,.T.);
#472=ORIENTED_EDGE('',*,*,#350,.T.);
#473=ORIENTED_EDGE('',*,*,#351,.T.);
#474=ORIENTED_EDGE('',*,*,#353,.T.);
#475=ORIENTED_EDGE('',*,*,#354,.F.);
#476=ORIENTED_EDGE('',*,*,#349,.F.);
#477=ORIENTED_EDGE('',*,*,#321,.F.);
#478=ORIENTED_EDGE('',*,*,#319,.F.);
#479=ORIENTED_EDGE('',*,*,#355,.T.);
#480=ORIENTED_EDGE('',*,*,#356,.T.);
#481=ORIENTED_EDGE('',*,*,#357,.F.);
#482=ORIENTED_EDGE('',*,*,#302,.F.);
#483=ORIENTED_EDGE('',*,*,#300,.T.);
#484=ORIENTED_EDGE('',*,*,#325,.T.);
#485=ORIENTED_EDGE('',*,*,#309,.T.);
#486=ORIENTED_EDGE('',*,*,#358,.T.);
#487=ORIENTED_EDGE('',*,*,#359,.F.);
#488=ORIENTED_EDGE('',*,*,#304,.T.);
#489=ORIENTED_EDGE('',*,*,#360,.F.);
#490=ORIENTED_EDGE('',*,*,#361,.T.);
#491=ORIENTED_EDGE('',*,*,#312,.F.);
#492=ORIENTED_EDGE('',*,*,#329,.F.);
#493=ORIENTED_EDGE('',*,*,#335,.F.);
#494=ORIENTED_EDGE('',*,*,#343,.F.);
#495=ORIENTED_EDGE('',*,*,#298,.F.);
#496=ORIENTED_EDGE('',*,*,#355,.F.);
#497=ORIENTED_EDGE('',*,*,#342,.F.);
#498=ORIENTED_EDGE('',*,*,#345,.T.);
#499=ORIENTED_EDGE('',*,*,#326,.T.);
#500=ORIENTED_EDGE('',*,*,#359,.T.);
#501=ORIENTED_EDGE('',*,*,#303,.T.);
#502=ORIENTED_EDGE('',*,*,#357,.T.);
#503=ORIENTED_EDGE('',*,*,#362,.T.);
#504=ORIENTED_EDGE('',*,*,#360,.T.);
#505=ORIENTED_EDGE('',*,*,#361,.F.);
#506=ORIENTED_EDGE('',*,*,#362,.F.);
#507=ORIENTED_EDGE('',*,*,#356,.F.);
#508=ORIENTED_EDGE('',*,*,#358,.F.);
#509=ORIENTED_EDGE('',*,*,#311,.T.);
#510=ORIENTED_EDGE('',*,*,#313,.F.);
#511=CYLINDRICAL_SURFACE('',#560,8.0000000745058);
#512=CYLINDRICAL_SURFACE('',#564,8.0000000745058);
#513=CYLINDRICAL_SURFACE('',#580,1.50000002235174);
#514=CYLINDRICAL_SURFACE('',#582,1.50000002235174);
#515=CYLINDRICAL_SURFACE('',#586,3.00000004470348);
#516=ADVANCED_FACE('',(#46),#511,.F.);
#517=ADVANCED_FACE('',(#47),#25,.T.);
#518=ADVANCED_FACE('',(#48),#512,.F.);
#519=ADVANCED_FACE('',(#49),#26,.T.);
#520=ADVANCED_FACE('',(#50),#27,.T.);
#521=ADVANCED_FACE('',(#51),#28,.T.);
#522=ADVANCED_FACE('',(#52),#29,.T.);
#523=ADVANCED_FACE('',(#53),#30,.T.);
#524=ADVANCED_FACE('',(#54),#31,.T.);
#525=ADVANCED_FACE('',(#55),#32,.T.);
#526=ADVANCED_FACE('',(#56),#21,.T.);
#527=ADVANCED_FACE('',(#57,#15,#16),#33,.T.);
#528=ADVANCED_FACE('',(#58),#22,.F.);
#529=ADVANCED_FACE('',(#59),#34,.T.);
#530=ADVANCED_FACE('',(#60),#513,.F.);
#531=ADVANCED_FACE('',(#61),#514,.F.);
#532=ADVANCED_FACE('',(#62,#17,#18),#35,.F.);
#533=ADVANCED_FACE('',(#63),#515,.F.);
#534=ADVANCED_FACE('',(#64),#36,.T.);
#535=ADVANCED_FACE('',(#65),#37,.T.);
#536=ADVANCED_FACE('',(#66),#23,.T.);
#537=ADVANCED_FACE('',(#67),#38,.T.);
#538=ADVANCED_FACE('',(#68),#39,.T.);
#539=ADVANCED_FACE('',(#69),#40,.T.);
#540=ADVANCED_FACE('',(#70),#41,.T.);
#541=ADVANCED_FACE('',(#71),#24,.F.);
#542=ADVANCED_FACE('',(#72),#42,.T.);
#543=ADVANCED_FACE('',(#73),#43,.T.);
#544=ADVANCED_FACE('',(#74),#44,.T.);
#545=ADVANCED_FACE('',(#75),#45,.T.);
#546=CLOSED_SHELL('',(#516,#517,#518,#519,#520,#521,#522,#523,#524,#525,
#526,#527,#528,#529,#530,#531,#532,#533,#534,#535,#536,#537,#538,#539,#540,
#541,#542,#543,#544,#545));
#547=DERIVED_UNIT_ELEMENT(#549,1.);
#548=DERIVED_UNIT_ELEMENT(#970,-3.);
#549=(
MASS_UNIT()
NAMED_UNIT(*)
SI_UNIT(.KILO.,.GRAM.)
);
#550=DERIVED_UNIT((#547,#548));
#551=MEASURE_REPRESENTATION_ITEM('density measure',
POSITIVE_RATIO_MEASURE(7850.),#550);
#552=PROPERTY_DEFINITION_REPRESENTATION(#557,#554);
#553=PROPERTY_DEFINITION_REPRESENTATION(#558,#555);
#554=REPRESENTATION('material name',(#556),#967);
#555=REPRESENTATION('density',(#551),#967);
#556=DESCRIPTIVE_REPRESENTATION_ITEM('Steel','Steel');
#557=PROPERTY_DEFINITION('material property','material name',#977);
#558=PROPERTY_DEFINITION('material property','density of part',#977);
#559=AXIS2_PLACEMENT_3D('',#734,#597,#598);
#560=AXIS2_PLACEMENT_3D('',#735,#599,#600);
#561=AXIS2_PLACEMENT_3D('',#738,#601,#602);
#562=AXIS2_PLACEMENT_3D('',#742,#604,#605);
#563=AXIS2_PLACEMENT_3D('',#744,#607,#608);
#564=AXIS2_PLACEMENT_3D('',#754,#614,#615);
#565=AXIS2_PLACEMENT_3D('',#757,#616,#617);
#566=AXIS2_PLACEMENT_3D('',#761,#619,#620);
#567=AXIS2_PLACEMENT_3D('',#763,#622,#623);
#568=AXIS2_PLACEMENT_3D('',#769,#627,#628);
#569=AXIS2_PLACEMENT_3D('',#778,#633,#634);
#570=AXIS2_PLACEMENT_3D('',#784,#638,#639);
#571=AXIS2_PLACEMENT_3D('',#790,#643,#644);
#572=AXIS2_PLACEMENT_3D('',#796,#648,#649);
#573=AXIS2_PLACEMENT_3D('',#802,#653,#654);
#574=AXIS2_PLACEMENT_3D('',#829,#658,#659);
#575=AXIS2_PLACEMENT_3D('',#839,#661,#662);
#576=AXIS2_PLACEMENT_3D('',#846,#666,#667);
#577=AXIS2_PLACEMENT_3D('',#848,#668,#669);
#578=AXIS2_PLACEMENT_3D('',#876,#670,#671);
#579=AXIS2_PLACEMENT_3D('',#877,#672,#673);
#580=AXIS2_PLACEMENT_3D('',#883,#677,#678);
#581=AXIS2_PLACEMENT_3D('',#886,#680,#681);
#582=AXIS2_PLACEMENT_3D('',#887,#682,#683);
#583=AXIS2_PLACEMENT_3D('',#890,#685,#686);
#584=AXIS2_PLACEMENT_3D('',#891,#687,#688);
#585=AXIS2_PLACEMENT_3D('',#893,#689,#690);
#586=AXIS2_PLACEMENT_3D('',#897,#694,#695);
#587=AXIS2_PLACEMENT_3D('',#899,#697,#698);
#588=AXIS2_PLACEMENT_3D('',#905,#702,#703);
#589=AXIS2_PLACEMENT_3D('',#926,#707,#708);
#590=AXIS2_PLACEMENT_3D('',#930,#711,#712);
#591=AXIS2_PLACEMENT_3D('',#932,#714,#715);
#592=AXIS2_PLACEMENT_3D('',#933,#716,#717);
#593=AXIS2_PLACEMENT_3D('',#957,#723,#724);
#594=AXIS2_PLACEMENT_3D('',#961,#727,#728);
#595=AXIS2_PLACEMENT_3D('',#962,#729,#730);
#596=AXIS2_PLACEMENT_3D('',#964,#732,#733);
#597=DIRECTION('axis',(0.,0.,1.));
#598=DIRECTION('refdir',(1.,0.,0.));
#599=DIRECTION('center_axis',(0.,1.,0.));
#600=DIRECTION('ref_axis',(1.,0.,0.));
#601=DIRECTION('center_axis',(0.,-1.,0.));
#602=DIRECTION('ref_axis',(1.,0.,0.));
#603=DIRECTION('',(0.,-1.,0.));
#604=DIRECTION('center_axis',(0.,-1.,0.));
#605=DIRECTION('ref_axis',(1.,0.,0.));
#606=DIRECTION('',(0.,-1.,0.));
#607=DIRECTION('center_axis',(1.,0.,0.));
#608=DIRECTION('ref_axis',(0.,1.,0.));
#609=DIRECTION('',(0.,0.,-1.));
#610=DIRECTION('',(0.,0.0342943908493788,0.999411774373441));
#611=DIRECTION('',(0.,-0.0184739260775526,-0.999829342465643));
#612=DIRECTION('',(0.,0.,-1.));
#613=DIRECTION('',(0.,-1.,0.));
#614=DIRECTION('center_axis',(0.,1.,0.));
#615=DIRECTION('ref_axis',(1.,0.,0.));
#616=DIRECTION('center_axis',(0.,-1.,0.));
#617=DIRECTION('ref_axis',(1.,0.,0.));
#618=DIRECTION('',(0.,-1.,0.));
#619=DIRECTION('center_axis',(0.,-1.,0.));
#620=DIRECTION('ref_axis',(1.,0.,0.));
#621=DIRECTION('',(0.,-1.,0.));
#622=DIRECTION('center_axis',(0.,0.,-1.));
#623=DIRECTION('ref_axis',(0.,1.,0.));
#624=DIRECTION('',(1.,0.,0.));
#625=DIRECTION('',(0.,1.,0.));
#626=DIRECTION('',(1.,0.,0.));
#627=DIRECTION('center_axis',(0.,0.951570542395388,0.307430484573906));
#628=DIRECTION('ref_axis',(0.,0.307430484573906,-0.951570542395388));
#629=DIRECTION('',(0.,-0.307430484573906,0.951570542395388));
#630=DIRECTION('',(-1.,0.,0.));
#631=DIRECTION('',(0.,0.307430484573906,-0.951570542395388));
#632=DIRECTION('',(-1.,0.,0.));
#633=DIRECTION('center_axis',(0.,0.857492926727239,0.514495753736368));
#634=DIRECTION('ref_axis',(0.,0.514495753736368,-0.857492926727239));
#635=DIRECTION('',(0.,-0.514495753736368,0.857492926727239));
#636=DIRECTION('',(0.,0.514495753736368,-0.857492926727239));
#637=DIRECTION('',(-1.,0.,0.));
#638=DIRECTION('center_axis',(-1.,0.,0.));
#639=DIRECTION('ref_axis',(0.,0.,1.));
#640=DIRECTION('',(0.,0.,1.));
#641=DIRECTION('',(0.,1.,0.));
#642=DIRECTION('',(0.,1.,0.));
#643=DIRECTION('center_axis',(0.,-0.951570540653187,0.307430489966433));
#644=DIRECTION('ref_axis',(0.,0.307430489966433,0.951570540653187));
#645=DIRECTION('',(0.,-0.307430489966433,-0.951570540653187));
#646=DIRECTION('',(-1.,0.,0.));
#647=DIRECTION('',(0.,0.307430489966433,0.951570540653187));
#648=DIRECTION('center_axis',(0.,-0.857492922330228,0.514495761064721));
#649=DIRECTION('ref_axis',(0.,0.514495761064721,0.857492922330228));
#650=DIRECTION('',(0.,0.514495761064721,0.857492922330228));
#651=DIRECTION('',(-1.,0.,0.));
#652=DIRECTION('',(0.,0.514495761064721,0.857492922330228));
#653=DIRECTION('center_axis',(-1.,0.,0.));
#654=DIRECTION('ref_axis',(0.,0.,1.));
#655=DIRECTION('',(0.,1.,0.));
#656=DIRECTION('',(0.,0.,-1.));
#657=DIRECTION('',(0.,1.,0.));
#658=DIRECTION('center_axis',(0.,0.,-1.));
#659=DIRECTION('ref_axis',(-1.,0.,0.));
#660=DIRECTION('',(1.70774391382284E-16,-0.0184739257198073,0.999829342472254));
#661=DIRECTION('center_axis',(0.,0.,1.));
#662=DIRECTION('ref_axis',(1.,0.,0.));
#663=DIRECTION('',(-1.,0.,0.));
#664=DIRECTION('',(0.,-1.,0.));
#665=DIRECTION('',(1.,0.,0.));
#666=DIRECTION('center_axis',(0.,0.,-1.));
#667=DIRECTION('ref_axis',(-1.,0.,0.));
#668=DIRECTION('center_axis',(0.,0.,-1.));
#669=DIRECTION('ref_axis',(-1.,0.,0.));
#670=DIRECTION('center_axis',(0.,0.,-1.));
#671=DIRECTION('ref_axis',(-1.,0.,0.));
#672=DIRECTION('center_axis',(-1.,0.,0.));
#673=DIRECTION('ref_axis',(0.,-1.,0.));
#674=DIRECTION('',(0.,1.,0.));
#675=DIRECTION('',(0.,0.,1.));
#676=DIRECTION('',(0.,0.,1.));
#677=DIRECTION('center_axis',(0.,0.,-1.));
#678=DIRECTION('ref_axis',(-1.,0.,0.));
#679=DIRECTION('',(0.,0.,-1.));
#680=DIRECTION('center_axis',(0.,0.,1.));
#681=DIRECTION('ref_axis',(-1.,0.,0.));
#682=DIRECTION('center_axis',(0.,0.,-1.));
#683=DIRECTION('ref_axis',(-1.,0.,0.));
#684=DIRECTION('',(0.,0.,-1.));
#685=DIRECTION('center_axis',(0.,0.,1.));
#686=DIRECTION('ref_axis',(-1.,0.,0.));
#687=DIRECTION('center_axis',(0.,0.,1.));
#688=DIRECTION('ref_axis',(1.,0.,0.));
#689=DIRECTION('center_axis',(0.,0.,1.));
#690=DIRECTION('ref_axis',(-1.,0.,0.));
#691=DIRECTION('',(0.,-1.,0.));
#692=DIRECTION('',(-1.,0.,0.));
#693=DIRECTION('',(1.,0.,0.));
#694=DIRECTION('center_axis',(0.,0.,-1.));
#695=DIRECTION('ref_axis',(-1.,0.,0.));
#696=DIRECTION('',(0.,0.,1.));
#697=DIRECTION('center_axis',(0.,0.,-1.));
#698=DIRECTION('ref_axis',(0.,1.,0.));
#699=DIRECTION('',(1.,0.,0.));
#700=DIRECTION('',(0.,1.,0.));
#701=DIRECTION('',(1.,0.,0.));
#702=DIRECTION('center_axis',(0.,1.,0.));
#703=DIRECTION('ref_axis',(-1.,0.,0.));
#704=DIRECTION('',(1.,0.,0.));
#705=DIRECTION('',(0.,0.,1.));
#706=DIRECTION('',(1.,0.,0.));
#707=DIRECTION('center_axis',(0.,-1.,0.));
#708=DIRECTION('ref_axis',(1.,0.,0.));
#709=DIRECTION('',(0.,0.,-1.));
#710=DIRECTION('',(1.,0.,0.));
#711=DIRECTION('center_axis',(1.,0.,0.));
#712=DIRECTION('ref_axis',(0.,0.,-1.));
#713=DIRECTION('',(0.,-1.,0.));
#714=DIRECTION('center_axis',(0.,0.,1.));
#715=DIRECTION('ref_axis',(1.,0.,0.));
#716=DIRECTION('center_axis',(0.,1.,0.));
#717=DIRECTION('ref_axis',(-1.,0.,0.));
#718=DIRECTION('',(0.,0.,1.));
#719=DIRECTION('',(1.,0.,0.));
#720=DIRECTION('',(0.,0.,1.));
#721=DIRECTION('',(1.,0.,0.));
#722=DIRECTION('',(0.,-0.0342943901858262,0.999411774396211));
#723=DIRECTION('center_axis',(0.,-1.,0.));
#724=DIRECTION('ref_axis',(1.,0.,0.));
#725=DIRECTION('',(0.,0.,-1.));
#726=DIRECTION('',(-1.,0.,0.));
#727=DIRECTION('center_axis',(1.,0.,0.));
#728=DIRECTION('ref_axis',(0.,1.,0.));
#729=DIRECTION('center_axis',(1.,0.,0.));
#730=DIRECTION('ref_axis',(0.,0.,-1.));
#731=DIRECTION('',(0.,-1.,0.));
#732=DIRECTION('center_axis',(0.,0.,1.));
#733=DIRECTION('ref_axis',(1.,0.,0.));
#734=CARTESIAN_POINT('',(0.,0.,0.));
#735=CARTESIAN_POINT('Origin',(13.0000001937151,-5.00000007450581,0.));
#736=CARTESIAN_POINT('',(13.0000001937151,2.99999992549419,8.0000000745058));
#737=CARTESIAN_POINT('',(5.00000011920929,2.99999992549419,-9.79717448442212E-16));
#738=CARTESIAN_POINT('Origin',(13.0000001937151,2.99999992549419,0.));
#739=CARTESIAN_POINT('',(5.00000007450581,5.00000007450581,0.));
#740=CARTESIAN_POINT('',(5.00000007450581,-7.00000010430813,0.));
#741=CARTESIAN_POINT('',(13.0000001937151,4.99999992549419,8.0000000745058));
#742=CARTESIAN_POINT('Origin',(13.0000001937151,4.99999992549419,0.));
#743=CARTESIAN_POINT('',(13.0000001937151,-5.00000007450581,8.00000007450581));
#744=CARTESIAN_POINT('Origin',(5.00000007450581,-8.50000012665987,3.));
#745=CARTESIAN_POINT('',(5.00000007450581,3.00000004470348,9.5));
#746=CARTESIAN_POINT('',(5.00000007450581,3.00000004470348,4.5));
#747=CARTESIAN_POINT('',(5.00000007450581,2.94852818391699,8.00000007450581));
#748=CARTESIAN_POINT('',(5.00000007450581,2.82842716689304,4.5));
#749=CARTESIAN_POINT('',(5.00000007450581,2.82842716689304,1.5));
#750=CARTESIAN_POINT('',(5.00000007450581,2.94852818391699,8.00000007450581));
#751=CARTESIAN_POINT('',(5.00000007450581,2.82842716689304,0.));
#752=CARTESIAN_POINT('',(5.00000007450581,2.82842716689304,1.5));
#753=CARTESIAN_POINT('',(5.00000007450581,-7.00000010430813,0.));
#754=CARTESIAN_POINT('Origin',(13.0000001937151,-5.00000007450581,0.));
#755=CARTESIAN_POINT('',(13.0000001937151,-5.00000007450581,8.0000000745058));
#756=CARTESIAN_POINT('',(5.00000007450581,-5.00000007450581,0.));
#757=CARTESIAN_POINT('Origin',(13.0000001937151,-5.00000007450581,0.));
#758=CARTESIAN_POINT('',(5.00000011920929,-3.00000007450581,-9.79717448442212E-16));
#759=CARTESIAN_POINT('',(5.00000007450581,-7.00000010430813,0.));
#760=CARTESIAN_POINT('',(13.0000001937151,-3.00000007450581,8.0000000745058));
#761=CARTESIAN_POINT('Origin',(13.0000001937151,-3.00000007450581,0.));
#762=CARTESIAN_POINT('',(13.0000001937151,-5.00000007450581,8.00000007450581));
#763=CARTESIAN_POINT('Origin',(5.00000007450581,-5.00000007450581,8.00000007450581));
#764=CARTESIAN_POINT('',(15.0000000745058,-3.00000004470348,8.00000007450581));
#765=CARTESIAN_POINT('',(5.00000007450581,-3.00000004470348,8.00000007450581));
#766=CARTESIAN_POINT('',(15.0000000745058,-5.00000007450581,8.00000007450581));
#767=CARTESIAN_POINT('',(15.0000000745058,-3.00000004470348,8.00000007450581));
#768=CARTESIAN_POINT('',(5.00000007450581,-5.00000007450581,8.00000007450581));
#769=CARTESIAN_POINT('Origin',(3.00000004470348,-2.10000003531575,8.00000007450581));
#770=CARTESIAN_POINT('',(3.00000004470348,2.22044604925031E-15,1.5));
#771=CARTESIAN_POINT('',(3.00000004470348,-2.10000003531575,8.00000007450581));
#772=CARTESIAN_POINT('',(3.00000004470348,9.71445146547012E-16,1.5));
#773=CARTESIAN_POINT('',(2.50000004470348,2.22044604925031E-15,1.5));
#774=CARTESIAN_POINT('',(1.50000002235174,1.94074746814928E-15,1.5));
#775=CARTESIAN_POINT('',(2.50000004470348,-2.10000003531575,8.00000007450581));
#776=CARTESIAN_POINT('',(2.50000004470348,9.71445146547012E-16,1.5));
#777=CARTESIAN_POINT('',(3.00000004470348,-2.10000003531575,8.00000007450581));
#778=CARTESIAN_POINT('Origin',(3.00000004470348,-3.00000004470348,9.50000009685755));
#779=CARTESIAN_POINT('',(3.00000004470348,-3.00000004470348,9.5));
#780=CARTESIAN_POINT('',(3.00000004470348,0.,4.5));
#781=CARTESIAN_POINT('',(2.50000004470348,-3.00000004470348,9.5));
#782=CARTESIAN_POINT('',(2.50000004470348,0.,4.5));
#783=CARTESIAN_POINT('',(3.00000004470348,-3.00000004470348,9.5));
#784=CARTESIAN_POINT('Origin',(2.50000004470348,-3.00000004470348,4.5));
#785=CARTESIAN_POINT('',(2.50000004470348,-5.00000007450581,1.5));
#786=CARTESIAN_POINT('',(2.50000004470348,-5.00000007450581,9.5));
#787=CARTESIAN_POINT('',(2.50000004470348,-5.00000007450581,4.5));
#788=CARTESIAN_POINT('',(2.50000004470348,-3.00000004470348,9.5));
#789=CARTESIAN_POINT('',(2.50000004470348,-1.50000002235174,1.5));
#790=CARTESIAN_POINT('Origin',(3.00000004470348,1.94289029309402E-15,1.5));
#791=CARTESIAN_POINT('',(3.00000004470348,2.10000007599592,8.00000007450581));
#792=CARTESIAN_POINT('',(3.00000004470348,2.10000007599592,8.00000007450581));
#793=CARTESIAN_POINT('',(2.50000004470348,2.10000007599592,8.00000007450581));
#794=CARTESIAN_POINT('',(3.00000004470348,2.10000007599592,8.00000007450581));
#795=CARTESIAN_POINT('',(2.50000004470348,2.10000007599592,8.00000007450581));
#796=CARTESIAN_POINT('Origin',(3.00000004470348,2.10000007599592,8.00000007450581));
#797=CARTESIAN_POINT('',(3.00000004470348,3.00000004470348,9.5));
#798=CARTESIAN_POINT('',(3.00000004470348,0.,4.5));
#799=CARTESIAN_POINT('',(2.50000004470348,3.00000004470348,9.5));
#800=CARTESIAN_POINT('',(3.00000004470348,3.00000004470348,9.5));
#801=CARTESIAN_POINT('',(2.50000004470348,0.,4.5));
#802=CARTESIAN_POINT('Origin',(2.50000004470348,5.00000007450581,4.5));
#803=CARTESIAN_POINT('',(2.50000004470348,5.00000007450581,9.5));
#804=CARTESIAN_POINT('',(2.50000004470348,3.00000004470348,9.5));
#805=CARTESIAN_POINT('',(2.50000004470348,5.00000007450581,1.5));
#806=CARTESIAN_POINT('',(2.50000004470348,5.00000007450581,4.5));
#807=CARTESIAN_POINT('',(2.50000004470348,2.5000000372529,1.5));
#808=CARTESIAN_POINT('Ctrl Pts',(5.0000000745058,-2.82842716689304,1.5));
#809=CARTESIAN_POINT('Ctrl Pts',(5.0000000745058,-2.86846083845884,3.66666669150194));
#810=CARTESIAN_POINT('Ctrl Pts',(5.00000007450581,-2.90849451002464,5.83333338300387));
#811=CARTESIAN_POINT('Ctrl Pts',(5.00000007450581,-2.94852818159045,8.00000007450581));
#812=CARTESIAN_POINT('Ctrl Pts',(4.33682311120114,-2.59395870295332,1.5));
#813=CARTESIAN_POINT('Ctrl Pts',(4.42062576750678,-2.69025008957717,3.66666669150193));
#814=CARTESIAN_POINT('Ctrl Pts',(4.50208834428233,-2.78967790473392,5.83333338300387));
#815=CARTESIAN_POINT('Ctrl Pts',(4.58589100058797,-2.88596929135777,8.00000007450581));
#816=CARTESIAN_POINT('Ctrl Pts',(3.3312246198236,-1.75967859938443,1.5));
#817=CARTESIAN_POINT('Ctrl Pts',(3.51253251971294,-2.06573159413878,3.66666669150194));
#818=CARTESIAN_POINT('Ctrl Pts',(3.69495236122155,-2.37071791744076,5.83333338300387));
#819=CARTESIAN_POINT('Ctrl Pts',(3.87626026111089,-2.67677091219512,8.0000000745058));
#820=CARTESIAN_POINT('Ctrl Pts',(3.00000004470348,-0.527554043864356,1.5));
#821=CARTESIAN_POINT('Ctrl Pts',(3.08223781337858,-1.11674811417818,3.66666669150193));
#822=CARTESIAN_POINT('Ctrl Pts',(3.16375851914944,-1.70547043010897,5.83333338300387));
#823=CARTESIAN_POINT('Ctrl Pts',(3.24599628782455,-2.29466450042279,8.00000007450581));
#824=CARTESIAN_POINT('Ctrl Pts',(3.00000004470348,9.71445146547012E-16,
1.5));
#825=CARTESIAN_POINT('Ctrl Pts',(3.00000004470348,-0.700000011771917,3.66666669150194));
#826=CARTESIAN_POINT('Ctrl Pts',(3.00000004470348,-1.40000002354383,5.83333338300387));
#827=CARTESIAN_POINT('Ctrl Pts',(3.00000004470348,-2.10000003531575,8.00000007450581));
#828=CARTESIAN_POINT('',(5.00000007450581,-2.82842716689304,1.5));
#829=CARTESIAN_POINT('Origin',(6.00000008940697,0.,1.5));
#830=CARTESIAN_POINT('',(5.00000007450581,-2.94852818159045,8.00000007450581));
#831=CARTESIAN_POINT('Ctrl Pts',(5.00000007450581,-2.94852818159045,8.00000007450581));
#832=CARTESIAN_POINT('Ctrl Pts',(4.58589100058797,-2.88596929135777,8.00000007450581));
#833=CARTESIAN_POINT('Ctrl Pts',(4.18038772088678,-2.76642736040769,8.00000007450581));
#834=CARTESIAN_POINT('Ctrl Pts',(3.80080011994175,-2.5904256637075,8.00000007450581));
#835=CARTESIAN_POINT('Ctrl Pts',(3.51610941923298,-2.45842439118236,8.00000007450581));
#836=CARTESIAN_POINT('Ctrl Pts',(3.24599628782455,-2.29466450042279,8.00000007450581));
#837=CARTESIAN_POINT('Ctrl Pts',(3.00000004470348,-2.10000003531575,8.00000007450581));
#838=CARTESIAN_POINT('',(5.0000000745058,-2.82842716689304,1.5));
#839=CARTESIAN_POINT('Origin',(0.,0.,1.5));
#840=CARTESIAN_POINT('',(-3.00000004470348,5.00000007450581,1.5));
#841=CARTESIAN_POINT('',(5.00000007450581,5.00000007450581,1.5));
#842=CARTESIAN_POINT('',(-3.00000004470348,-5.00000007450581,1.5));
#843=CARTESIAN_POINT('',(-3.00000004470348,-5.00000007450581,1.5));
#844=CARTESIAN_POINT('',(3.00000004470348,-5.00000007450581,1.5));
#845=CARTESIAN_POINT('',(1.50000002235174,-2.00000002980232,1.5));
#846=CARTESIAN_POINT('Origin',(0.,-2.00000002980232,1.5));
#847=CARTESIAN_POINT('',(1.50000002235174,2.00000002980232,1.5));
#848=CARTESIAN_POINT('Origin',(0.,2.00000002980232,1.5));
#849=CARTESIAN_POINT('Ctrl Pts',(3.00000004470348,2.10000007599592,8.00000007450581));
#850=CARTESIAN_POINT('Ctrl Pts',(3.00000004470348,1.40000005066395,5.83333338300387));
#851=CARTESIAN_POINT('Ctrl Pts',(3.00000004470348,0.700000025331976,3.66666669150194));
#852=CARTESIAN_POINT('Ctrl Pts',(3.00000004470348,2.22044604925031E-15,
1.5));
#853=CARTESIAN_POINT('Ctrl Pts',(3.32799201131838,2.35955028622525,8.00000007450581));
#854=CARTESIAN_POINT('Ctrl Pts',(3.21736765034014,1.80786365266439,5.83333338300387));
#855=CARTESIAN_POINT('Ctrl Pts',(3.11062440568172,1.25509202537999,3.66666669150193));
#856=CARTESIAN_POINT('Ctrl Pts',(3.00000004470348,0.703405391819144,1.5));
#857=CARTESIAN_POINT('Ctrl Pts',(3.97641083709009,2.71743830633319,8.00000007450581));
#858=CARTESIAN_POINT('Ctrl Pts',(3.80185921416206,2.45459081930585,5.83333338300387));
#859=CARTESIAN_POINT('Ctrl Pts',(3.62591899536249,2.19243359657477,3.66666669150194));
#860=CARTESIAN_POINT('Ctrl Pts',(3.45136737243446,1.92958610954743,1.5));
#861=CARTESIAN_POINT('Ctrl Pts',(4.6894239387968,2.90160987449581,8.00000007450581));
#862=CARTESIAN_POINT('Ctrl Pts',(4.62725783588167,2.81889772736694,5.83333338300387));
#863=CARTESIAN_POINT('Ctrl Pts',(4.56478345494244,2.73528796606713,3.66666669150193));
#864=CARTESIAN_POINT('Ctrl Pts',(4.50261735202731,2.65257581893825,1.5));
#865=CARTESIAN_POINT('Ctrl Pts',(5.00000007450581,2.94852818391699,8.00000007450581));
#866=CARTESIAN_POINT('Ctrl Pts',(5.00000007450581,2.90849451157567,5.83333338300387));
#867=CARTESIAN_POINT('Ctrl Pts',(5.00000007450581,2.86846083923435,3.66666669150194));
#868=CARTESIAN_POINT('Ctrl Pts',(5.00000007450581,2.82842716689304,1.5));
#869=CARTESIAN_POINT('Ctrl Pts',(3.00000004470348,2.10000007599592,8.00000007450581));
#870=CARTESIAN_POINT('Ctrl Pts',(3.32799201131838,2.35955028622525,8.00000007450581));
#871=CARTESIAN_POINT('Ctrl Pts',(3.6985170546165,2.56405772628693,8.00000007450581));
#872=CARTESIAN_POINT('Ctrl Pts',(4.09013410638319,2.71184142693789,8.00000007450581));
#873=CARTESIAN_POINT('Ctrl Pts',(4.38384689520821,2.82267920242612,8.00000007450581));
#874=CARTESIAN_POINT('Ctrl Pts',(4.6894239387968,2.90160987449581,8.00000007450581));
#875=CARTESIAN_POINT('Ctrl Pts',(5.00000007450581,2.94852818391699,8.00000007450581));
#876=CARTESIAN_POINT('Origin',(6.00000008940697,0.,1.5));
#877=CARTESIAN_POINT('Origin',(-3.00000004470348,5.00000007450581,0.));
#878=CARTESIAN_POINT('',(-3.00000004470348,-5.00000007450581,0.));
#879=CARTESIAN_POINT('',(-3.00000004470348,5.00000007450581,0.));
#880=CARTESIAN_POINT('',(-3.00000004470348,-5.00000007450581,0.));
#881=CARTESIAN_POINT('',(-3.00000004470348,-5.00000007450581,0.));
#882=CARTESIAN_POINT('',(-3.00000004470348,5.00000007450581,0.));
#883=CARTESIAN_POINT('Origin',(0.,-2.00000002980232,1.5));
#884=CARTESIAN_POINT('',(1.50000002235174,-2.00000002980232,0.));
#885=CARTESIAN_POINT('',(1.50000002235174,-2.00000002980232,1.5));
#886=CARTESIAN_POINT('Origin',(0.,-2.00000002980232,0.));
#887=CARTESIAN_POINT('Origin',(0.,2.00000002980232,1.5));
#888=CARTESIAN_POINT('',(1.50000002235174,2.00000002980232,0.));
#889=CARTESIAN_POINT('',(1.50000002235174,2.00000002980232,1.5));
#890=CARTESIAN_POINT('Origin',(0.,2.00000002980232,0.));
#891=CARTESIAN_POINT('Origin',(0.,0.,0.));
#892=CARTESIAN_POINT('',(5.00000007450581,-2.82842716689304,0.));
#893=CARTESIAN_POINT('Origin',(6.00000008940697,0.,0.));
#894=CARTESIAN_POINT('',(5.00000007450581,-7.00000010430813,0.));
#895=CARTESIAN_POINT('',(3.00000004470348,-5.00000007450581,0.));
#896=CARTESIAN_POINT('',(5.00000007450581,5.00000007450581,0.));
#897=CARTESIAN_POINT('Origin',(6.00000008940697,0.,1.5));
#898=CARTESIAN_POINT('',(5.00000007450581,-2.82842716689304,1.5));
#899=CARTESIAN_POINT('Origin',(5.00000007450581,3.00000007450581,8.00000007450581));
#900=CARTESIAN_POINT('',(15.0000000745058,5.00000007450581,8.00000007450581));
#901=CARTESIAN_POINT('',(5.00000007450581,5.00000007450581,8.00000007450581));
#902=CARTESIAN_POINT('',(15.0000000745058,3.00000007450581,8.00000007450581));
#903=CARTESIAN_POINT('',(15.0000000745058,5.00000007450581,8.00000007450581));
#904=CARTESIAN_POINT('',(5.00000007450581,3.00000007450581,8.00000007450581));
#905=CARTESIAN_POINT('Origin',(3.00000004470348,5.00000007450581,3.));
#906=CARTESIAN_POINT('',(15.0000000745058,5.00000007450581,9.5));
#907=CARTESIAN_POINT('',(5.00000007450581,5.00000007450581,9.5));
#908=CARTESIAN_POINT('',(15.0000000745058,5.00000007450581,9.5));
#909=CARTESIAN_POINT('Ctrl Pts',(3.00000004470348,2.10000007599592,8.00000007450581));
#910=CARTESIAN_POINT('Ctrl Pts',(3.00000004470348,2.40000006556511,8.50000004967054));
#911=CARTESIAN_POINT('Ctrl Pts',(3.00000004470348,2.7000000551343,9.00000002483527));
#912=CARTESIAN_POINT('Ctrl Pts',(3.00000004470348,3.00000004470348,9.5));
#913=CARTESIAN_POINT('Ctrl Pts',(3.46666672825813,2.46928788835825,8.00000007450581));
#914=CARTESIAN_POINT('Ctrl Pts',(3.5351032524351,2.64519150820103,8.50000004967054));
#915=CARTESIAN_POINT('Ctrl Pts',(3.59823019712729,2.8240964248607,9.00000002483527));
#916=CARTESIAN_POINT('Ctrl Pts',(3.66666672130426,3.00000004470348,9.5));
#917=CARTESIAN_POINT('Ctrl Pts',(4.1851655025099,2.82543224646288,8.00000007450581));
#918=CARTESIAN_POINT('Ctrl Pts',(4.23608797084284,2.88228635011876,8.50000004967054));
#919=CARTESIAN_POINT('Ctrl Pts',(4.28241092957209,2.9431459410476,9.00000002483527));
#920=CARTESIAN_POINT('Ctrl Pts',(4.33333339790503,3.00000004470348,9.5));
#921=CARTESIAN_POINT('Ctrl Pts',(5.00000007450581,2.94852818391699,8.00000007450581));
#922=CARTESIAN_POINT('Ctrl Pts',(5.00000007450581,2.96568547084582,8.50000004967054));
#923=CARTESIAN_POINT('Ctrl Pts',(5.00000007450581,2.98284275777465,9.00000002483527));
#924=CARTESIAN_POINT('Ctrl Pts',(5.00000007450581,3.00000004470348,9.5));
#925=CARTESIAN_POINT('',(5.00000007450581,3.00000004470348,9.5));
#926=CARTESIAN_POINT('Origin',(3.00000004470348,3.00000004470348,4.5));
#927=CARTESIAN_POINT('',(15.0000000745058,3.00000007450581,9.5));
#928=CARTESIAN_POINT('',(15.0000000745058,3.00000007450581,8.00000007450581));
#929=CARTESIAN_POINT('',(5.00000007450581,3.00000004470348,9.5));
#930=CARTESIAN_POINT('Origin',(15.0000000745058,4.00000007450581,8.7500000372529));
#931=CARTESIAN_POINT('',(15.0000000745058,3.00000007450581,9.5));
#932=CARTESIAN_POINT('Origin',(4.00000005960464,4.00000005960464,9.5));
#933=CARTESIAN_POINT('Origin',(5.00000007450581,-3.00000004470348,4.5));
#934=CARTESIAN_POINT('',(5.00000007450581,-3.00000004470348,9.50000009685755));
#935=CARTESIAN_POINT('',(5.00000007450581,-3.00000004470348,4.5));
#936=CARTESIAN_POINT('',(15.0000000745058,-3.00000004470348,9.5));
#937=CARTESIAN_POINT('',(5.00000007450581,-3.00000004470348,9.5));
#938=CARTESIAN_POINT('',(15.0000000745058,-3.00000004470348,8.00000007450581));
#939=CARTESIAN_POINT('Ctrl Pts',(3.00000004470348,-2.10000003531575,8.0000000745058));
#940=CARTESIAN_POINT('Ctrl Pts',(3.00000004470348,-2.400000038445,8.50000008195638));
#941=CARTESIAN_POINT('Ctrl Pts',(3.00000004470348,-2.70000004157424,9.00000008940697));
#942=CARTESIAN_POINT('Ctrl Pts',(3.00000004470348,-3.00000004470348,9.50000009685755));
#943=CARTESIAN_POINT('Ctrl Pts',(3.46666671921809,-2.46928786436996,8.0000000745058));
#944=CARTESIAN_POINT('Ctrl Pts',(3.53510324648841,-2.64519149216361,8.50000008195638));
#945=CARTESIAN_POINT('Ctrl Pts',(3.59823019403394,-2.82409641690983,9.00000008940697));
#946=CARTESIAN_POINT('Ctrl Pts',(3.66666672130426,-3.00000004470348,9.50000009685755));
#947=CARTESIAN_POINT('Ctrl Pts',(4.18516549581268,-2.82543223857238,8.0000000745058));
#948=CARTESIAN_POINT('Ctrl Pts',(4.23608796644733,-2.88228634479808,8.50000008195638));
#949=CARTESIAN_POINT('Ctrl Pts',(4.28241092727038,-2.94314593847778,9.00000008940697));
#950=CARTESIAN_POINT('Ctrl Pts',(4.33333339790503,-3.00000004470348,9.50000009685755));
#951=CARTESIAN_POINT('Ctrl Pts',(5.00000007450581,-2.94852818159045,8.0000000745058));
#952=CARTESIAN_POINT('Ctrl Pts',(5.00000007450581,-2.96568546929479,8.50000008195638));
#953=CARTESIAN_POINT('Ctrl Pts',(5.00000007450581,-2.98284275699914,9.00000008940697));
#954=CARTESIAN_POINT('Ctrl Pts',(5.00000007450581,-3.00000004470348,9.50000009685755));
#955=CARTESIAN_POINT('',(5.00000007450581,-3.00000004470348,9.5));
#956=CARTESIAN_POINT('',(5.00000007450581,-2.82842716689304,4.5));
#957=CARTESIAN_POINT('Origin',(-3.00000004470348,-5.00000007450581,3.));
#958=CARTESIAN_POINT('',(15.0000000745058,-5.00000007450581,9.5));
#959=CARTESIAN_POINT('',(15.0000000745058,-5.00000007450581,8.00000007450581));
#960=CARTESIAN_POINT('',(3.00000004470348,-5.00000007450581,9.5));
#961=CARTESIAN_POINT('Origin',(5.00000007450581,-8.50000012665987,3.));
#962=CARTESIAN_POINT('Origin',(15.0000000745058,-4.00000005960464,8.7500000372529));
#963=CARTESIAN_POINT('',(15.0000000745058,-5.00000007450581,9.5));
#964=CARTESIAN_POINT('Origin',(4.00000005960464,-4.00000005960465,9.5));
#965=UNCERTAINTY_MEASURE_WITH_UNIT(LENGTH_MEASURE(0.01),#969,
'DISTANCE_ACCURACY_VALUE',
'Maximum model space distance between geometric entities at asserted c
onnectivities');
#966=UNCERTAINTY_MEASURE_WITH_UNIT(LENGTH_MEASURE(0.01),#969,
'DISTANCE_ACCURACY_VALUE',
'Maximum model space distance between geometric entities at asserted c
onnectivities');
#967=(
GEOMETRIC_REPRESENTATION_CONTEXT(3)
GLOBAL_UNCERTAINTY_ASSIGNED_CONTEXT((#965))
GLOBAL_UNIT_ASSIGNED_CONTEXT((#969,#971,#972))
REPRESENTATION_CONTEXT('','3D')
);
#968=(
GEOMETRIC_REPRESENTATION_CONTEXT(3)
GLOBAL_UNCERTAINTY_ASSIGNED_CONTEXT((#966))
GLOBAL_UNIT_ASSIGNED_CONTEXT((#969,#971,#972))
REPRESENTATION_CONTEXT('','3D')
);
#969=(
LENGTH_UNIT()
NAMED_UNIT(*)
SI_UNIT(.MILLI.,.METRE.)
);
#970=(
LENGTH_UNIT()
NAMED_UNIT(*)
SI_UNIT($,.METRE.)
);
#971=(
NAMED_UNIT(*)
PLANE_ANGLE_UNIT()
SI_UNIT($,.RADIAN.)
);
#972=(
NAMED_UNIT(*)
SI_UNIT($,.STERADIAN.)
SOLID_ANGLE_UNIT()
);
#973=SHAPE_DEFINITION_REPRESENTATION(#974,#975);
#974=PRODUCT_DEFINITION_SHAPE('',$,#977);
#975=SHAPE_REPRESENTATION('',(#559),#967);
#976=PRODUCT_DEFINITION_CONTEXT('part definition',#981,'design');
#977=PRODUCT_DEFINITION('Headset PCB mount','Headset PCB mount',#978,#976);
#978=PRODUCT_DEFINITION_FORMATION('',$,#983);
#979=PRODUCT_RELATED_PRODUCT_CATEGORY('Headset PCB mount',
'Headset PCB mount',(#983));
#980=APPLICATION_PROTOCOL_DEFINITION('international standard',
'automotive_design',2009,#981);
#981=APPLICATION_CONTEXT(
'Core Data for Automotive Mechanical Design Process');
#982=PRODUCT_CONTEXT('part definition',#981,'mechanical');
#983=PRODUCT('Headset PCB mount','Headset PCB mount',$,(#982));
#984=PRESENTATION_STYLE_ASSIGNMENT((#985));
#985=SURFACE_STYLE_USAGE(.BOTH.,#986);
#986=SURFACE_SIDE_STYLE('',(#987));
#987=SURFACE_STYLE_FILL_AREA(#988);
#988=FILL_AREA_STYLE('Steel - Satin',(#989));
#989=FILL_AREA_STYLE_COLOUR('Steel - Satin',#990);
#990=COLOUR_RGB('Steel - Satin',0.627450980392157,0.627450980392157,0.627450980392157);
ENDSEC;
END-ISO-10303-21;
